<svg width="1440" height="864" viewBox="0 0 1440 864" fill="none" xmlns="http://www.w3.org/2000/svg">
<path fill-rule="evenodd" clip-rule="evenodd" d="M1440 0H0V864H1440V0ZM814.061 360.485C814.061 356.73 812.947 353.059 810.861 349.937C808.775 346.815 805.811 344.382 802.342 342.945C798.873 341.508 795.055 341.132 791.373 341.865C787.689 342.597 784.307 344.405 781.652 347.061C778.998 349.716 777.189 353.098 776.457 356.781C775.725 360.464 776.1 364.281 777.537 367.75C778.975 371.219 781.406 374.184 784.529 376.27C787.65 378.356 791.322 379.469 795.076 379.469C800.111 379.469 804.939 377.469 808.5 373.909C812.061 370.349 814.061 365.52 814.061 360.485ZM788.248 522.5V505.486L724.725 345.214H689.463L625.939 505.486V522.5L650.166 522.5L665.305 483.019H728.152L738.418 456.371L764.025 522.5L788.248 522.5ZM735.301 448.349L738.352 456.202H675.736L707.02 374.513L735.301 448.322V448.349Z" fill="#EFE4D6"/>
</svg>
