<svg width="1441" height="864" viewBox="0 0 1441 864" fill="none" xmlns="http://www.w3.org/2000/svg">
<path fill-rule="evenodd" clip-rule="evenodd" d="M811.727 349.937C813.812 353.059 814.926 356.73 814.926 360.484C814.926 365.52 812.926 370.349 809.365 373.909C805.805 377.469 800.977 379.469 795.941 379.469C792.188 379.469 788.516 378.356 785.395 376.27C782.271 374.184 779.84 371.219 778.402 367.749C776.965 364.281 776.59 360.463 777.322 356.781C778.055 353.098 779.863 349.715 782.518 347.061C785.172 344.405 788.555 342.597 792.238 341.865C795.92 341.132 799.738 341.508 803.207 342.945C806.676 344.382 809.641 346.815 811.727 349.937ZM789.113 505.486V522.5H764.891L739.283 456.371L729.018 483.019H666.17L651.031 522.5H626.805V505.486L690.328 345.214H725.59L789.113 505.486ZM739.217 456.202L736.166 448.349V448.322L707.885 374.513L676.602 456.202H739.217Z" fill="white"/>
</svg>
