<svg width="499" height="239" viewBox="0 0 499 239" fill="none" xmlns="http://www.w3.org/2000/svg">
<path d="M150.8 182.2C150.5 181.7 150.3 181.5 150.2 181.3C150 180.1 149.6 179 149.7 177.8C149.7 177.4 151.5 176.7 151.7 176.8C152.5 177.7 153.6 178.8 153.7 179.9C154 183.1 156.1 182.8 158.2 182.8C158.5 182 158.5 181 159.1 180.5C159.8 179.7 161.3 178.6 161.8 178.9C164 179.9 165.3 178.7 166.6 177.5C168.3 175.9 170 174.2 171.7 172.5C173.3 171 175 169.5 176.8 168C178.7 172 175.9 176 172 175.8C170.7 175.7 165.1 179 164.9 180.1C164.8 180.9 165.6 181.7 166 182.7C165.3 183.6 163.7 184.5 165.3 186.2C167 188 168.5 186.9 169.5 185.7C170.5 184.4 171.7 183.8 173.1 183C175.9 181.5 178.3 179 180.7 176.8C182.7 175 184.7 173 186.7 171.1C188.8 173.6 188.7 176 186.5 177.3C185 178.2 183 178.4 181.5 179.3C178.5 181 175.6 182.9 172.8 184.9C172.4 185.2 172.7 186.5 172.8 187.3C173.3 190.4 172.4 191.6 169.3 191.8C168.6 191.8 167.8 191.9 167.2 192C167.1 192.2 167 192.3 167 192.4C167.1 193.4 167.1 194.4 167.2 195.7C171 196.1 174.9 196.2 178.6 197C180.6 197.4 182.5 198.8 184 200.2C184.6 200.8 184.3 202.8 183.9 204C182.1 209.7 178.5 212 172.8 210.6C164.7 208.6 156.8 206.3 148.7 204.1C147.1 205.6 145 207.4 142.9 209.3C140.9 206 141.4 204.8 145.9 201.7C144.7 200.7 143.5 199.6 142.2 198.7C140.9 197.9 140 198.5 139.3 199.8C137.6 202.6 135.3 204.7 132.3 206C130.7 203.7 130.8 201.4 133 200.1C134.5 199.2 136.4 198.9 138.1 198.1C139.4 197.5 140.5 196.6 141.6 195.6C142.6 194.7 143.2 193 144.4 192.5C146.5 191.6 147 190.1 147.1 188.2C147.2 185.4 148.1 183.4 150.8 182.2Z" fill="#D07850"/>
<path fill-rule="evenodd" clip-rule="evenodd" d="M83.6 42C84 42.1 84.3 42.3 84.5 42.6C85.2 43.6 85.6 45.5 84.8 46.8C84.6 47.1 84.1 47.2 83.9 47.7C84.1 48 84.4 48 84.6 48.2C85 48.5 85.3 48.9 85.5 49.4C85.7 49.9 85.7 50.5 85.8 51.2C85.9 51.4 85.9 51.7 86 51.9C86.1 53.6 86.2 55.2 86.3 56.9C86.6 57.1 87 57.3 87.2 57.6C87.4 57.9 87.6 58.2 87.7 58.5C87.9 58.6 88.2 58.8 88.4 58.9C88.7 59.2 89.1 59.4 89.4 59.7C91 60.4 92.7 61.2 94.3 61.9C95.9 62.6 97.5 63.4 99.1 64.1C101.9 65.2 104.7 66.4 107.5 67.5C109.2 68.2 111.1 68.8 112.7 69.5C113 69.6 113.4 69.4 113.7 69.5C113.9 69.6 114.1 69.7 114.4 69.8C114.9 70 115.8 70.1 116.3 70L116.7 71.5C116.7 71.7 116.5 71.9 116.5 72.2C116.6 72.4 116.6 72.5 116.7 72.6C116.6 72.7 116.6 72.8 116.4 72.9C116.3 72.9 116.3 72.9 116.2 72.8H116.1C116.1 73.2 116.4 73.2 116.4 73.7C116.3 73.7 116.3 73.8 116.2 73.8C115.5 73.7 115.5 72.9 114.5 72.9C114.4 73 114.2 73.2 114.2 73.4C114.1 73.4 114.1 73.3 114.1 73.3L113.4 73.9C113.2 74.4 113.9 75.6 113 75.8C112.8 75.7 112.7 75.6 112.7 75.4H112.6C112.5 75.6 112.4 75.7 112.4 76C112.6 76.2 112.7 76.2 112.8 76.4C112.4 76.6 111.9 76.5 111.7 76.1C111.6 76 112.2 74.4 112.3 74.2V74.1C111.5 74.3 110.8 74.6 110.1 74.5C110 74.5 110.1 74.5 110 74.6C109.8 74.5 109.9 74.5 109.7 74.4V74.5C109.6 74.5 109.6 74.4 109.5 74.4C109.4 74.3 109.4 74.4 109.2 74.4C109.1 74.3 109.1 74.4 109.1 74.3C108.7 74.4 108 75.1 107.8 75.5C107.8 76.2 108.6 76.4 108.9 76.9C108.9 76.9 108.9 76.9 108.9 77C108.6 77.1 108.4 77 108.1 77C107.8 76.4 107.5 76 107 75.6C107.1 75.2 107.5 74.8 107.2 74.3C107.1 74.2 106.9 74 106.8 74C106.1 74.5 105.4 75.5 105.8 76.7C105.9 76.8 106.1 76.8 106.3 76.9L106.4 77C106.4 77 106.4 77.1 106.4 77.2C106.2 77.3 105.6 77.4 105.4 77.2C105.2 76.9 105.4 76.3 105.3 75.9C105.3 75.7 105 75.5 105.1 75.3C105.2 75 105.4 74.7 105.3 74.2C105.2 73.8 105 73.4 105.1 73C105.2 72.4 105.5 72.2 105.5 71.6C105.2 71.5 104.7 71.5 104.5 71.8C104.2 71.7 104.2 71.8 103.8 71.9L103.9 71.8V71.7C103.8 71.7 103.7 71.8 103.6 71.8C103.6 71.7 103.6 71.7 103.6 71.6C103.5 71.5 103.4 71.6 103.3 71.6L103.4 71.5C103.3 71.3 103 71.3 102.8 71.2C102.7 71.1 102.7 71 102.6 70.9H102.7C102.7 70.8 102.7 70.8 102.6 70.8C102.7 70.8 102.7 70.8 102.8 70.7C102.8 70.6 102.7 70.4 102.6 70.4C103.2 69.3 103.5 69.6 104.4 69.5C104.1 69.8 103.1 69.9 103.3 70.4C103.5 71 104.6 71 105.2 70.8C106 70.6 106.6 70.1 107.5 70.1C108 70.2 108.5 70.2 109 70.3C110 70.5 111.1 70.2 111.8 69.9C111.8 69.9 111.8 69.9 111.9 69.9C111.7 69.4 110.7 69.3 110.2 69.1C108.6 68.5 107.1 67.8 105.5 67.2C100.8 65.2 96.1 63.2 91.6 61.1C90.5 60.7 89.4 60.2 88.4 59.8C87.7 59.6 86.7 59.5 86.3 59.1C86.1 59.1 86 59.2 85.9 59.3C85.9 59.3 85.9 59.3 85.9 59.4C86 59.5 86.1 59.7 86.3 59.8C86.2 60 86.3 60.4 86.4 60.7C86.9 61.4 87.3 62.1 87.8 62.7C87.8 62.8 87.8 62.9 87.8 62.9C87 63.5 86.3 62.5 86.2 61.9C86 62 86.2 62.4 86.1 62.7C86.2 62.9 86.5 63.1 86.6 63.3C86.6 63.5 86.6 63.6 86.6 63.8C86.7 64.2 86.9 64.4 87 64.8C87 65 87 65.3 86.9 65.5C87 66.4 87 67.8 87.2 68.7C87.2 69.2 87.2 69.8 87.2 70.4C87.4 70.8 87.5 71.3 87.7 71.7C87.9 72.3 88 72.8 88.2 73.4C88.4 74.4 88.7 76 89.5 76.4C89.6 76.5 89.8 76.3 90 76.3C90 76.5 90 76.6 89.9 76.8C90 76.9 90.1 76.9 90.1 77C90.4 77.1 90.9 77.2 91.3 77.2C91.6 77 92.2 76.5 92.6 77C92.8 78 91.8 78.6 91.1 78.8C90.7 78.9 90.3 79 90 79.1C89.4 79.4 88.6 80.2 87.7 79.6C87.6 79.2 87.8 78.8 87.7 78.4C87.6 77.8 87.5 77.2 87.3 76.7C87.6 76.4 86.7 74.9 86.5 74.6C85.9 73.8 85.4 73.2 85.1 72.1C85 71.5 85 71 84.9 70.4C84.4 69.5 83.9 68.5 83.4 67.6C83.3 67.4 83.1 67.2 83 67C82.7 66.9 82 66.8 81.7 66.9C81.6 67 80.9 69 80.7 69.3C80.4 69.8 79.8 70.3 79.5 70.8C79.2 71.3 79.1 71.9 78.9 72.5C78.4 74 77.8 75.4 77.8 77.4C78.1 77.8 78.6 78.3 79.1 78.5L79.2 78.6C78.9 78.5 78.7 78.4 78.5 78.3C78.5 78.4 78.6 78.6 78.6 78.7C78.9 78.8 79.1 79.1 79.3 79.2C79.7 79.4 80.2 79.2 80.4 79.6C80.4 80.3 79.7 80.2 79 80.3C78.4 80.4 77.7 80.3 77.2 80.2C76.9 80.2 76.6 80.2 76.2 80.3C75.7 80.2 75.2 80 74.8 79.8C74.8 79.3 75.2 79 75.4 78.6C75.5 78.3 75.4 78.1 75.6 77.9C75.7 77.7 75.8 77.7 75.9 77.5C76.2 76.6 76.1 75.6 76.3 74.4C76.4 73.6 76.3 72.9 76.4 72.2C76.6 71.2 77.1 70.5 77.5 69.7C77.8 68.9 78.1 67.1 78 66C77.2 65.4 76.4 65.2 76.1 64.1C76.3 63.8 76.8 63.6 77 63.3C77.4 62.8 77.5 61.9 77.7 61.2C77.5 61.2 77.4 61.3 77.3 61.3L77.2 61.2C77.3 60.8 77.7 60.6 77.9 60.3C78.2 59.8 78.3 59.3 78.5 58.7C78.6 58.3 79.2 57.9 79.4 57.5C79.5 57.2 79.4 56.9 79.3 56.6C79.2 56.6 79.1 56.5 79 56.5C79 56.3 78.9 56.2 78.9 56C78.8 55.8 78.5 55.5 78.3 55.3C78.3 55 78.4 54.9 78.5 54.7C78.4 54.5 78.3 54.5 78.2 54.4C78.4 53.8 78.6 53.3 78.8 52.7C78.8 52.5 78.7 52.2 78.7 52C78.6 51.3 78.8 50.6 79 50.2C79.5 49.4 80.1 48.8 80.7 48.1C80.9 47.8 81.2 47.7 81.4 47.4C81.4 47.3 81.4 47.2 81.3 47.1C81.2 47.1 81.2 47.1 81.1 47.1C81 47.1 80.9 47.3 80.9 47.4H80.8C80.8 47.2 79.9 47.3 79.9 46.5C79.9 46.5 79.8 46.5 79.8 46.4C79.8 46.6 79.8 46.7 79.9 46.9C79.8 46.8 79.7 46.3 79.7 46.2C79.7 46.2 79.7 46.2 79.6 46.2C79.5 46.5 79.7 46.8 79.7 47C79.5 46.9 79.4 46.6 79.4 46.3C79.2 46.4 79.3 46.6 79.4 46.8C79.3 46.6 79.3 46.5 79.2 46.3C79.2 46.4 79.1 46.4 79.1 46.5C79.1 46.5 79.1 46.5 79 46.5C79.3 45.4 79.5 45 80.7 44.8C80.7 43.3 81.6 42.6 82.9 42.5C83.2 42 83.4 42 83.6 42ZM80.5 46.3C80.5 46.5 80.5 46.4 80.5 46.5C80.5 46.5 80.5 46.5 80.6 46.6C80.7 46.7 80.7 46.6 80.8 46.6C80.8 46.4 80.7 46.4 80.5 46.3ZM87.3 59C87.9 59.2 88.6 59.4 89.2 59.6C89 59.1 88.2 58.8 87.7 58.5C87.5 58.7 87.3 58.8 87.3 59ZM112.2 69.3C112.1 69.3 112.1 69.4 112.1 69.5C112.2 69.5 112.3 69.6 112.4 69.6C112.4 69.6 112.4 69.5 112.5 69.5C112.4 69.4 112.4 69.3 112.2 69.3ZM111.9 69.3C111.9 69.3 111.9 69.4 112 69.4C112 69.4 112 69.4 111.9 69.3C112 69.3 112 69.3 111.9 69.3ZM115.8 70.3C115.8 70.4 115.8 70.4 115.8 70.3Z" fill="#D07850"/>
<path fill-rule="evenodd" clip-rule="evenodd" d="M339.7 72.4C339.7 72.7 339.6 73 339.6 73.4C339 75.2 337.4 76.6 335.8 77.3C332.8 78.7 328 77.1 326.4 74.6C326 73.9 325.1 73.4 325.1 72.6C325.1 72.4 324.7 72 324.9 71.9C324.8 71.7 324.6 71.5 324.7 71.3C324.7 71.2 324.5 70.3 324.4 70.2C324.2 69.6 324.5 67.5 324.8 66.9C325.6 65.2 326.6 64.6 328.1 63.5C328.1 63.1 327.8 62.9 327.7 62.5C327.8 62.3 327.8 62.1 327.9 61.9C327.8 61.7 327.6 61.3 327.5 61.1C327 61.6 322.9 65.5 321.9 66.4L322 66.5C322.2 66.7 322.4 66.8 322.6 67C322.5 67.3 322.6 67.4 322.7 67.6C323.1 67.7 323.4 67.8 323.8 68C323.9 68.2 324 68.5 324 68.6C323.9 68.7 323.9 68.8 323.8 69C323.5 69 323 68.9 322.6 69.1C322.3 69.2 322 69.6 321.7 69.7C321.4 69.8 321.3 69.7 321.1 69.8C321.1 69.8 321.1 69.8 321.1 69.9C321 70.2 321.2 70.5 321.2 70.8C321.2 71.8 321.1 72.9 321.1 73.9C321.2 74.4 321.7 74.7 321.4 75.1C321.3 75.3 321.4 75.8 321.7 75.6C322 75.7 322.4 75.8 322.4 76.2C322.8 76.3 323.1 76.4 323.4 76.5C323.4 76.6 323.4 76.7 323.5 76.8C324.1 77.2 325.2 76.9 325.4 77.6C325.4 77.8 325.3 77.9 325.3 78.1C325.1 78.3 325 78.2 324.7 78.3C324.5 78.4 324.4 78.6 324.3 78.7C324.1 78.8 323.1 78.8 322.8 78.8C322.7 78.7 322.6 78.7 322.5 78.6C321.9 78.4 321 78.4 320.6 78.7C320.2 78.7 319.5 78.8 319.1 78.5C319 78 319 77.6 318.9 77.1C319 76.8 319.1 76.5 319.3 76.2C319.1 74.9 318.6 73.9 318.3 72.5H318.2C318 72.6 317.7 72.6 317.5 72.7C317.2 72.8 316.9 72.6 316.8 72.5C316.5 72.4 314.4 72.8 314.2 73C314 73.3 313.3 74.6 311.6 75.5C310.8 75.9 307.9 76.8 305.6 76.1C303 75.3 300.9 72.7 300.7 72.2C299.9 70.4 299.4 68.7 300.1 66.2C300.8 63.7 303.3 61.9 305.9 61.4C307.1 61.1 311.1 61.2 313.4 64.1C313.7 64 315 63.2 315.2 62.9C315.2 62.3 314.9 61.9 314.8 61.4C314.6 60.4 314.4 59.4 314.1 58.5C314 58 314 57.3 313.6 57.1C313.4 57 313.2 57.1 312.9 57C312.3 56.9 311.4 56.6 311.2 56.1C311 55.6 311.3 55.2 311.7 55.1C311.7 54.8 311.7 54.5 311.7 54.3C309.7 54.1 310.2 52.6 310.4 51C310.5 50.7 310.3 50.7 310.2 50.5C310.1 50.2 310.4 49.7 310.5 49.5C310.8 49.4 311 49.2 311.2 49.1C311.4 49 311.7 48.9 311.9 48.9C312.6 48.4 313 47.6 313.7 47.1C314.2 46.8 315.1 46.4 315.7 46.3C315.9 46.3 316.2 46.3 316.4 46.3C316.7 46.2 317 45.8 317.3 45.7C317.5 45.6 317.8 45.8 318 45.6C318.7 45.2 318.8 44.3 319.6 43.8C319.4 43.7 319.3 43.5 319.2 43.2C319.5 43 320 42.9 320.4 42.7V42.6C318.1 40.9 321 38.5 323.5 38.9C324.6 39.1 325.2 39.5 325.9 40.1C326.2 40.4 327.3 41 327 41.6C326.4 41.7 326 41.8 325.7 42.2C325.7 42.4 326 43.6 326 43.6C326 43.7 325.7 43.8 325.6 43.8C325.6 44.2 325.5 44.2 325.4 44.4C325.4 44.5 325.5 44.5 325.5 44.6C324.9 45.3 325.7 45.5 324.1 45.3C324.1 45.5 323.9 45.5 323.8 45.7C323.7 45.6 323.6 45.6 323.5 45.6C323.4 45.7 323.3 45.7 323.3 45.8C323.6 46.2 324.1 46.3 324.1 47C323.9 47.2 323.5 47.7 323.8 47.9C323.8 47.9 323.8 47.9 323.8 48C323.6 48 323.6 48 323.6 48.1C323.8 48.9 323.4 51.4 323.6 51.9C323.7 52 324.6 53 324.7 53C325.2 53.3 325.8 53.3 326.3 53.5C326.6 53.7 326.7 54.1 327 54.2C327.3 54.2 327.6 54.3 327.9 54.3C328.8 54.4 329.2 54.7 329.6 55.3L329.4 55.4C329.2 55.4 329.4 55.6 329.2 55.6C329 55.4 328.7 55.3 328.5 55.1C328.1 55 327.3 55.1 327 55.4C326.9 55.5 327 55.7 327 55.9C327.1 56.1 327.3 56.2 327.4 56.4C327.4 56.5 327.4 56.6 327.4 56.7L327.3 56.8C327.1 56.6 327 56.4 326.8 56.1C326.3 55.3 325.5 54.7 324.3 54.5C324.4 55.3 325.1 55.5 325.5 56C326.1 56.6 326.3 57.5 327.2 57.7C327.3 57.6 327.4 57.6 327.5 57.5C327.6 57.6 327.7 57.6 327.7 57.7C328.1 57.6 328.4 57.4 328.8 57.3C328.9 57.2 329 57 329.1 56.9C329.3 56.8 329.5 56.8 329.6 56.7C329.5 56.3 330.6 55.4 330.9 55.2C331.8 55.2 331 55.9 330.9 56.2C330.9 56.4 330.9 56.6 330.9 56.8C331.1 57 331.3 57.2 331.6 57.3C331.8 57 332.8 57.1 332.4 57.5C332.2 57.4 332 57.3 331.8 57.4C331.7 57.9 331 57.9 330.7 58.2C330.4 58.4 330.4 58.9 330.2 59.2C330.1 59.3 329.9 59.4 329.8 59.6C329.6 59.9 329.8 60.3 329.9 60.4C329.9 60.5 329.9 60.5 329.8 60.5C329.7 60.5 329.6 60.5 329.6 60.6C329.5 60.5 329.5 60.3 329.4 60.1C329.3 60.2 329.2 60.3 329.2 60.3C329.5 60.9 329.8 61.6 330.3 62.1C330.5 62.3 331.1 62.5 331.2 62.7C334.5 62.7 336.7 64.2 338.3 66.3C338.6 66.7 339 67.1 339.2 67.5C339.6 68.5 339.9 69.6 340.1 70.6C340 71.2 339.8 72 339.7 72.4ZM317.9 72.1C317.9 72 317.9 72 317.8 72V72.1C317.8 72.1 317.8 72.1 317.9 72.1ZM317.9 71.3C317.9 71.1 317.9 71 317.8 70.9C317.7 71 317.7 71 317.6 71.1C317.7 71.2 317.8 71.2 317.9 71.3ZM317.6 69.6C317.6 69.5 317.6 69.5 317.6 69.6C317.7 69.5 317.6 69.5 317.6 69.4C317.5 69.5 317.5 69.5 317.6 69.6ZM317.5 71.9C317.5 71.8 317.5 71.8 317.5 71.7C317.2 71.8 317.1 71.7 316.8 71.6C316.7 71.7 316.8 71.7 316.6 71.6C316.6 71.7 316.6 71.7 316.6 71.8C317 71.9 317.2 72 317.5 71.9ZM317.5 71.6C317.4 71.6 317.4 71.5 317.5 71.6C317.4 71.5 317.4 71.4 317.3 71.3C317.2 71.3 317.1 71.3 317 71.2L316.9 71.3V71.4C317.1 71.5 317.3 71.5 317.5 71.6ZM316.5 70.2C316.4 70.3 316.4 70.4 316.3 70.6C316.4 70.6 316.7 70.6 316.8 70.5V70.4C316.8 70.3 316.6 70.3 316.5 70.2ZM316.8 69.8V69.7H316.7V69.8C316.8 69.8 316.8 69.8 316.8 69.8ZM316.4 69.8C316.4 69.9 316.4 69.9 316.4 70C316.5 70 316.5 70 316.6 70V69.9C316.6 69.8 316.5 69.8 316.4 69.8ZM316.5 69.4C316.4 69.3 316.4 69.4 316.3 69.4V69.5C316.4 69.4 316.5 69.4 316.5 69.4ZM316.9 72.3C317 72.3 317 72.3 316.9 72.3C316.9 72.2 317 72.2 316.8 72.1C316.9 72.2 316.9 72.3 316.9 72.3ZM316.5 72.3C316.6 72.3 316.6 72.3 316.7 72.2C316.6 72.1 316.4 72 316.2 72C316.2 71.9 316.2 71.9 316.2 71.8C316.2 71.8 316.2 71.8 316.1 71.8C316.1 71.8 316.1 71.8 316.1 71.9C316.2 72 316.4 72.1 316.5 72.3ZM315.3 69.5C315.4 69.6 315.3 69.6 315.3 69.5C315.4 69.5 315.5 69.5 315.5 69.5C315.6 69.3 315.8 69.2 315.9 69C315.7 69.2 315.5 69.4 315.3 69.5ZM315.5 69.1C315.4 69.1 315.3 69.1 315.2 69.1C315.2 69.2 315.2 69.3 315.2 69.5C315.3 69.3 315.4 69.2 315.5 69.1ZM315.1 70.8C315 70.8 315 70.8 315.1 70.8C315.2 70.9 315.3 70.8 315.4 70.8C315.2 70.8 315.1 70.8 315.1 70.8ZM315.6 69.6C315.7 69.6 315.7 69.6 315.7 69.6C315.7 69.6 315.7 69.5 315.8 69.5C315.8 69.5 315.8 69.5 315.7 69.5C315.7 69.5 315.6 69.5 315.6 69.6ZM315.8 71.4C315.9 71.5 315.9 71.6 316 71.7H316.1C315.9 71.6 315.9 71.5 315.8 71.4ZM316.1 69.8C316.1 69.8 316.1 69.7 316 69.7C316 69.7 316 69.8 316.1 69.8ZM316.2 69.6C316.2 69.6 316.2 69.5 316.3 69.5H316.2C316.1 69.5 316.1 69.6 316.2 69.6ZM316.2 71.6C316.2 71.7 316.2 71.6 316.3 71.7C316.3 71.7 316.3 71.7 316.4 71.6C316.2 71.6 316.2 71.6 316.2 71.6ZM314.3 72.7C314.8 72.6 315.8 72.6 316.1 72.4V72.3C315.8 72.2 315.5 71.8 315.4 71.5C315.3 71.5 315.3 71.5 315.2 71.5C314.9 71.6 314.8 71.6 314.7 71.7C314.6 72.1 314.5 72.3 314.3 72.7C314.3 72.6 314.3 72.6 314.3 72.7ZM307.8 72C307.8 72.4 308.1 73.2 308.3 73.3C308.5 73.2 308.8 73.2 309 73.2C308.8 72.8 308.4 71.6 308.1 71.4C308 71.6 308 71.8 307.8 72ZM307.9 67.2C307.9 67 307.9 66.8 307.9 66.6C307.9 66.8 307.8 67.1 307.9 67.2ZM307.8 72.7C307.9 72.8 307.9 72.8 308 72.9C307.9 72.8 307.9 72.6 307.8 72.5C307.8 72.5 307.8 72.6 307.8 72.7ZM308 73C308 73.1 308 73.2 308 73.3H308.1V73.2C308.1 73.1 308.1 73.1 308 73ZM308 70.6C308.4 71.5 308.8 72.3 309.2 73.2C309.5 73.2 309.9 73.2 310.2 73.1C309.9 72.5 308.8 70.3 308.2 70.3C308.1 70.4 308 70.4 308 70.6C307.9 70.5 307.9 70.5 308 70.6ZM310.3 73.1C310.7 73.1 311.2 73.1 311.3 73C310.5 72.1 310.1 71.2 308.9 70.7C309.3 71.5 309.8 72.3 310.3 73.1ZM308.6 70.3C308.6 70.2 308.5 70.2 308.5 70.1C308.5 70.3 308.5 70.3 308.6 70.3ZM308.5 68C308.7 67.9 308.7 67.8 308.8 67.7C308.7 67.8 308.6 67.8 308.5 67.9C308.5 67.9 308.5 67.9 308.5 68ZM308.7 67.9C308.9 67.8 309.7 67.2 309.6 67.2C309.2 67.5 309 67.5 308.7 67.9ZM308.6 70.1V70.2C309 70.7 309.5 71 310.1 71.3C309.8 70.8 309.4 70.1 308.8 69.9C308.7 70 308.6 70 308.6 70.1ZM309.1 70C309 69.9 309 69.9 308.9 69.9C308.9 69.9 308.9 69.9 308.9 70C309 69.9 309 70 309.1 70ZM309.9 69.6C309.5 69.5 309.4 69.4 308.9 69.4V69.5C309.2 69.5 309.6 69.6 309.9 69.6ZM310.7 69.1C310.1 69 309.6 68.9 309 68.7C309 68.8 309 68.9 309 69.1C309.3 69.3 310.2 69.3 310.7 69.1ZM309.2 68.5C309.4 68.5 309.7 68.6 309.8 68.5C309.6 68.5 309.4 68.5 309.2 68.5ZM309.8 68.6C309.9 68.6 309.9 68.6 309.8 68.6C310.5 68.9 312.5 69.2 313.3 68.9C312.1 68.8 311.2 68.7 310 68.6C310 68.6 309.9 68.6 309.8 68.6ZM312.2 69.1C312.7 69.1 313.4 69.5 313.8 69.4C313.8 69.3 313.8 69.1 313.8 69H313.7C313.2 69 312.7 69.1 312.2 69.1ZM313.8 69.9C313.1 69.5 311.6 69.2 310.8 69.2C310.4 69.3 310 69.3 309.5 69.4C309.5 69.4 309.5 69.4 309.6 69.4C310 69.7 313.1 70.2 313.8 69.9ZM313.6 70.9C313.6 70.8 313.6 70.7 313.7 70.6C313.7 70.6 313.7 70.6 313.6 70.6C313.1 70.3 312.2 70.3 311.6 70.2C312.3 70.5 312.9 70.7 313.6 70.9ZM312.9 71.2C313 71.1 313.2 71.1 313.3 71C312.6 70.7 312 70.4 311.3 70.2C310.6 70.1 309.9 70 309.2 69.9C309.5 70.4 312 71.4 312.7 71.7C312.7 71.7 312.7 71.7 312.8 71.7C312.7 71.5 312.8 71.3 312.9 71.2ZM312.6 72.7C312.6 72.3 312.6 72.2 312.7 71.8C311.6 71.3 310.5 70.7 309.4 70.2C309.9 71.2 310.7 71.7 311.7 72.3C312 72.5 312.2 72.9 312.6 72.7ZM312.3 72.8C311.7 72.4 311.1 72 310.5 71.6C310.8 72.1 311.1 72.5 311.4 73C311.6 72.9 311.9 72.9 312.3 72.8C312.3 72.9 312.3 72.9 312.3 72.8ZM311.8 73.5C311.9 73.4 312.3 73.2 312.2 73C311.9 73 311.7 73.1 311.4 73.1C311.5 73.2 311.5 73.3 311.6 73.5C311.7 73.5 311.8 73.5 311.8 73.5ZM311.6 73.6C311.5 73.5 311.4 73.3 311.3 73.2C311.2 73.2 311.1 73.2 311 73.2C311 73.2 311 73.2 311 73.3C310.8 73.3 310.5 73.3 310.3 73.4C310.5 73.7 310.6 74 310.8 74.2C311.2 74 311.4 73.8 311.6 73.6ZM309.9 74.6C310.1 74.7 310.7 74.4 310.8 74.2C310.5 73.6 310.4 73.4 309.9 73.3C309.9 73.3 309.9 73.4 309.8 73.4C309.7 73.3 309.5 73.4 309.3 73.3C309.3 73.3 309.3 73.3 309.3 73.4C309.4 73.7 309.6 74.4 309.9 74.6ZM309.7 74.6C309.5 74.2 309.3 73.8 309.2 73.4H309.1C308.9 73.5 308.6 73.5 308.4 73.5C308.6 74 308.7 74.5 308.9 75C309.2 74.9 309.6 74.9 309.7 74.6ZM307.7 75C307.9 75.1 308.4 75 308.6 74.9C308.6 74.9 308.6 74.9 308.7 74.9C308.5 74.4 308.4 73.9 308.2 73.4C308.1 73.4 307.9 73.4 307.8 73.5V73.6C307.7 74.1 307.7 74.6 307.7 75ZM307.6 67.5H307.7C307.7 67.5 307.7 67.4 307.8 67.4C307.8 67.3 307.8 67.1 307.7 67C307.7 67.2 307.6 67.3 307.6 67.5ZM307.3 71.4C307.2 71.9 307.1 72.4 307 73C307 73 307 73 307.1 73C307.2 72.5 307.5 72.2 307.6 71.6C307.5 71.5 307.4 71.4 307.3 71.4ZM307.7 72.6C307.8 72.5 307.7 72.5 307.7 72.4C307.7 72.5 307.7 72.5 307.7 72.6ZM306.7 74.9C306.9 75 307.4 75 307.6 75C307.6 74.5 307.7 74 307.7 73.6C307.4 73.6 307.2 73.4 307 73.3C306.8 73.8 306.7 74.4 306.7 74.9ZM305.6 74.7C305.9 74.8 306.2 74.9 306.5 74.9C306.6 74.9 306.5 74.9 306.6 74.8C306.7 74.3 306.8 73.8 307 73.2C307 73.2 306.8 73.1 306.9 72.9C307.1 72.5 307.3 71.8 307.4 71.2C307 71.2 307 71 306.7 71C306.1 71.8 305.7 73.7 305.6 74.7ZM307.3 70.7C307.3 70.6 307.3 70.6 307.3 70.7C307.3 70.6 307.2 70.6 307.2 70.5C307.1 70.5 307 70.5 306.8 70.5C306.8 70.6 306.8 70.6 306.8 70.7C307 70.7 307.1 70.7 307.3 70.7ZM306.7 67.5C306.7 67.4 306.6 67.4 306.6 67.4C306.6 67.4 306.6 67.5 306.7 67.5ZM305.9 70.9C306 70.9 306 70.9 306.1 70.9C306.2 70.7 306.4 70.5 306.3 70.4C306.1 70.5 306 70.7 305.9 70.9ZM306.3 70.2C306.3 70.2 306.3 70.3 306.2 70.3C306.3 70.3 306.3 70.3 306.3 70.2ZM305 69.4C305.1 69.4 305.1 69.4 305.2 69.4C305.1 69.4 305 69.3 305 69.4C304.9 69.3 304.9 69.4 304.9 69.4H305ZM304.8 69.6C304.8 69.7 304.8 69.8 304.8 69.9C305 69.7 305.2 69.6 305.4 69.4C305.3 69.4 305.2 69.4 305.2 69.4C305.1 69.5 305 69.5 304.8 69.6ZM305.6 69.2C305.7 69.2 305.7 69.1 305.6 69.2C305.6 69.1 305.6 69 305.6 68.9C305.5 68.9 305.5 68.9 305.4 68.9C305.3 69 305.1 69.1 305 69.2C305.3 69.3 305.4 69.2 305.6 69.2ZM305.6 69.2C305.6 69.3 305.6 69.3 305.6 69.2C305.7 69.3 305.6 69.3 305.6 69.2ZM305.7 69.4C305.4 69.6 305.2 69.8 304.9 70C305 70.4 305.2 70.6 305.6 70.8C305.9 70.6 306.1 70.5 306.3 70.1C306 69.9 305.8 69.7 305.7 69.4ZM305.6 70.9C305.7 70.9 305.8 70.9 305.8 70.9C305.8 70.9 305.8 70.9 305.8 70.8C305.8 70.7 305.8 70.7 305.8 70.6C305.8 70.7 305.7 70.8 305.6 70.9ZM305.4 74.5C305.7 73.4 306 72.3 306.2 71.2C306.1 71.2 305.9 71.1 305.7 71.1C305.2 72.1 304.8 73.1 304.3 74.1C304.7 74.3 305.1 74.6 305.4 74.5ZM304.4 74.1C304.8 73.2 305.2 72.2 305.6 71.3C304.9 72.1 304.2 72.9 303.5 73.6C303.7 73.8 304.1 74.1 304.4 74.1ZM302.8 73C303 73.2 303.3 73.6 303.6 73.5C304.3 72.7 305 71.9 305.7 71.1C305.7 71.1 305.7 71.1 305.6 71.1C305.5 71.1 305.5 71 305.4 71C304.5 71.6 303.6 72.3 302.7 72.9C302.8 72.9 302.8 72.9 302.8 73ZM302.1 72.1C302.3 72.3 302.5 72.6 302.7 72.8C303.6 72.2 304.5 71.6 305.4 71C305.1 70.7 305 70.4 304.7 70.1C303.8 70.7 302.9 71.4 302 72C302.1 72 302.1 72 302.1 72.1ZM302 71.9C302.9 71.3 303.8 70.6 304.8 70C304.8 69.9 304.8 69.8 304.7 69.7C303.7 70.1 302.6 70.6 301.6 71C301.6 71.3 301.8 71.7 302 71.9ZM301.5 70.9C301.9 70.9 304.7 69.6 304.8 69.5C303.6 69.7 302.4 69.8 301.2 70C301.2 70.4 301.3 70.7 301.5 70.9ZM301.1 69.9C302.4 69.8 303.6 69.6 304.8 69.5V69.4H304.7C303.5 69.3 302.3 69.1 301 69C300.9 69.1 301 69.5 301.1 69.9ZM301 68.7C301 68.8 301.1 68.8 301.1 68.9C302.4 69 303.7 69.2 304.9 69.3C305 69.2 305.2 69.1 305.3 68.9C303.9 68.6 302.5 68.2 301 67.9C301 68 300.9 68.4 301 68.7ZM301 67.8C302.1 68.1 303.2 68.3 304.4 68.6C304.8 68.7 305.2 68.9 305.6 68.8C305.6 68.8 305.7 68.8 305.7 68.7C305.7 68.5 305.8 68.4 305.7 68.2C304.8 67.8 303.7 67.5 302.7 67.2C302.2 67.1 301.7 66.9 301.2 66.8C301.1 67.1 301 67.4 301 67.8ZM301.3 66.7C302.7 67.1 304 67.5 305.3 67.9C305.1 67.6 302.1 65.9 301.6 65.8C301.5 66.1 301.3 66.3 301.3 66.7ZM302.2 65C302 65.2 301.9 65.5 301.7 65.7L301.8 65.8C302.8 66.4 303.8 66.9 304.8 67.5C304 66.6 303.2 65.8 302.2 65ZM302.9 64.2C302.7 64.4 302.5 64.6 302.3 64.9C302.8 65.5 305.2 67.9 306 68.1C306.1 67.9 306.3 67.8 306.5 67.7C306.4 66.9 303.7 64.6 302.9 64.2C303 64.2 303 64.2 302.9 64.2ZM303.1 64.1C304.1 65 305.2 65.9 306.2 66.8C305.6 66 305 65.2 304.5 64.3C304.3 64 304.2 63.6 303.8 63.5C303.5 63.7 303.3 63.8 303.1 64.1ZM304.8 63.1C304.5 63.2 304.3 63.3 304 63.5V63.6C304.7 64.6 305.4 65.6 306.1 66.6C305.7 65.5 305.3 64.3 304.9 63.2C304.9 63.1 304.9 63.1 304.8 63.1ZM305.9 62.7C305.6 62.8 305.4 62.9 305.1 62.9V63C305.6 64.3 306 65.6 306.5 66.9C306.4 65.9 306.2 64.8 306.1 63.8C306 63.5 306.1 62.9 305.9 62.7ZM306.5 62.6C306.4 62.6 306.3 62.7 306.1 62.7C306.1 62.7 306.1 62.7 306.1 62.8C306.5 64.2 306.1 66.6 307.1 67.5C307.3 67.5 307.4 67.5 307.6 67.5C307.7 67.3 307.8 67.1 307.9 66.9C307.9 66.6 307.3 62.8 307.2 62.7C306.9 62.7 306.7 62.7 306.5 62.6ZM308.3 62.8C308.3 62.9 308.2 63.2 308.2 63.6C308.2 63.2 308.2 62.9 308.2 62.8C308.2 62.7 308.2 62.8 308.1 62.7C307.9 62.7 307.6 62.6 307.4 62.6H307.3C307.3 62.7 307.3 62.7 307.3 62.8C307.5 64.1 307.7 65.3 307.9 66.6C307.9 66.6 307.9 66.6 307.9 66.5C308 66.4 308.1 65.8 308.1 65.1C308.1 65.5 308.1 65.7 308.1 65.9C308.1 65.9 308.1 65.9 308.1 65.8C308.5 64.9 308.9 64 309.3 63C309.1 62.9 308.7 62.8 308.3 62.8ZM309.4 63.1C308.9 64.3 308.1 65.5 308 67C308 67 308 67 308.1 67C308.6 66.1 309.2 65.3 309.7 64.4C309.9 64.1 310.2 63.8 310.3 63.5C310.1 63.3 309.8 63.2 309.4 63.1ZM311.1 64C310.8 63.9 310.7 63.7 310.4 63.6C309.8 64.6 309.1 65.5 308.5 66.5C308.3 66.7 307.9 67.2 308 67.6C308 67.6 308 67.7 308.1 67.7C308.8 67.6 311.1 64.8 311.1 64C311.2 64.1 311.2 64 311.1 64ZM311.2 64.4C310.7 65.2 310.1 65.9 309.6 66.7C310.1 66.3 310.7 65.9 311.2 65.6V65.5C311.1 65.4 311.1 65.3 311 65.3C311.1 65.1 311.2 65.1 311.3 64.9C311.3 64.7 311.3 64.5 311.2 64.4ZM312.6 65.5C312.1 65.8 311.8 66 311.4 66.3C311.8 66.1 312.3 65.9 312.7 65.7C312.7 65.7 312.7 65.6 312.6 65.5ZM313.3 66.6C313.2 66.4 313.1 66 312.8 65.9H312.7C312.2 66.1 311.6 66.4 311.1 66.6C310.5 67.1 309.8 67.5 309.2 68C310.6 67.6 311.9 67.2 313.3 66.8C313.3 66.7 313.3 66.7 313.3 66.6ZM313.6 67.4C313.4 67.5 313.2 67.6 313 67.6C313 67.6 313 67.5 312.9 67.5C312.9 67.5 312.9 67.5 312.9 67.4C313.1 67.3 313.3 67.2 313.5 67.1C313.5 67 313.4 66.9 313.4 66.8C313.3 66.8 313.3 66.8 313.2 66.8C311.8 67.2 310.3 67.7 308.9 68.1V68.2C308.9 68.2 308.9 68.2 309 68.2C310.2 68.7 312.1 68 313.7 67.8V67.7C313.6 67.6 313.6 67.5 313.6 67.4ZM313.5 67.9C312.6 68.1 311.8 68.2 310.9 68.4C310.9 68.4 310.9 68.4 310.9 68.5C311.8 68.6 312.8 68.7 313.7 68.8C313.7 68.5 313.6 68.3 313.6 68C313.6 67.9 313.6 67.9 313.5 67.9ZM313.7 64.6C314 65.4 314.6 66 314.9 66.9C315.1 67.6 315 68.4 315.3 68.9C315.5 68.9 315.6 68.9 315.8 68.9C315.9 68.8 316.1 68.6 316.2 68.5L316.1 68.4C316.1 68.3 316.2 68.3 316.2 68.2C316.3 68.2 316.4 68.2 316.5 68.3C316.5 68.2 316.5 68.2 316.5 68.1C316.1 66.5 315.6 65 315.2 63.4C315.2 63.4 315.2 63.4 315.1 63.4C314.7 63.8 314.2 64.2 313.7 64.6ZM316.9 61.6C316.2 60.7 315.5 60.2 315.2 58.9C315.1 58.5 315 56.7 314.9 56.5C314.7 56.6 314.5 56.7 314.3 56.8C314.3 58 315.2 60.6 315.7 61.3C315.6 61.7 315.7 62.2 315.9 62.6C316.3 62.5 316.7 62.4 317 62.3C316.9 62.1 316.9 61.8 316.9 61.6ZM317.9 66.8C317.8 66.6 317.6 66.4 317.5 66.1C317.6 65.8 317.6 65.5 317.7 65.2C317.6 65 317.5 64.8 317.4 64.6C317.4 64.4 317.4 64.2 317.4 64.1C317.2 63.7 317.1 63.4 316.9 63C316.8 63 316.8 63 316.7 63C316.4 63.1 316.1 63.2 315.7 63.3C315.8 64.4 316.9 68.7 317.4 69.2C317.5 69.2 317.5 69.2 317.6 69.2C317.9 68.6 318.1 67.3 317.9 66.8ZM326 59.2C325.5 59.2 325.1 58.6 324.3 58C323.5 57.4 322.1 56.4 322.1 56.4C322.1 56.4 322.4 57 322.5 58.1C322.6 59.2 322.7 60.7 322.7 60.7L325.3 59.9L325.2 59.7L325.5 59.6L325.6 59.7L326.6 59.4C326.6 59.4 326.6 59.2 326.6 59.1C326.7 59 326.7 59 326.7 59C326.7 59 326.4 59.2 326 59.2ZM326 60.5C325.4 60.7 322.6 61.4 322.6 61.4C322.6 61.4 322.6 62.1 322.7 62.8C322.8 63.5 322.2 64.4 322 64.8C321.8 65.1 321.6 65.9 321.6 65.9C321.6 65.9 324.1 63.5 325.1 62.5C326.1 61.5 327.2 60.6 327.2 60.4C327.2 60 326.6 60.4 326 60.5ZM338.3 71.6C336.7 71.3 335.1 71 333.5 70.8C333.9 71.3 336.4 71.9 337.2 72.2C337.5 72.3 338.1 72.6 338.3 72.5C338.3 72.2 338.4 71.7 338.3 71.6ZM332.9 69.7C332.9 69.8 332.8 69.9 332.8 70C332.9 70.4 333.5 70 333.8 69.9C333.5 69.8 333.2 69.8 332.9 69.7ZM333 69.4C333.1 69.2 333.2 69 333.3 68.8C333.1 69 333 69.1 333 69.4ZM332.7 71.5C332.6 71.3 332.5 71.2 332.4 71H332.3C332.3 71.1 332.2 71.1 332.2 71.3C332.4 71.4 332.5 71.4 332.7 71.5ZM332.1 71.4H332C332 71.5 332 71.5 331.9 71.6C332 71.8 332.1 71.9 332.2 72.1C332.2 71.8 332.2 71.6 332.1 71.4ZM332.8 71.6C332.6 71.5 332.4 71.5 332.2 71.4C332.2 72.5 332.9 72.8 333.2 73.6C333.2 73 333.1 72.1 332.8 71.6ZM333.2 70.7C333.1 70.7 332.9 70.6 332.8 70.6C332.9 70.7 333 70.7 333.2 70.7ZM333.2 70.8C333.3 70.8 333.4 70.9 333.5 70.9C333.4 70.8 333.4 70.8 333.2 70.8ZM333.1 70.6C333.1 70.5 333.1 70.5 333.1 70.6C333 70.5 332.9 70.4 332.8 70.4C332.7 70.5 332.7 70.4 332.7 70.6C332.9 70.5 333 70.5 333.1 70.6ZM332.7 70.9C332.6 70.9 332.6 70.9 332.5 71C332.6 71.1 332.7 71.2 332.8 71.3C332.8 71.1 332.8 71 332.7 70.9ZM332.6 71.2C332.7 71.3 332.8 71.4 332.9 71.5C332.8 71.4 332.8 71.3 332.6 71.2ZM332.5 70.9C332.6 70.9 332.7 70.9 332.8 70.7C332.7 70.7 332.6 70.7 332.5 70.6C332.5 70.6 332.5 70.6 332.4 70.6C332.4 70.8 332.4 70.8 332.5 70.9ZM332.8 69.6C332.9 69.4 332.9 69.3 333 69.1C332.8 69.2 332.7 69.4 332.5 69.5C332.5 69.6 332.6 69.6 332.8 69.6ZM333 70.3C333.4 70.9 334.7 70.2 335.4 70.1C334.9 70 334.5 70 334 69.9C333.6 70 333.3 70.2 333 70.3ZM338 73.4C338.1 73.1 338.2 72.9 338.2 72.6C338.2 72.6 338.2 72.5 338.1 72.5C336.7 72 335.3 71.6 333.9 71.1C334 71.2 334 71.3 334.1 71.4C333.7 71.1 333.4 70.9 332.9 70.8C332.8 70.9 332.9 70.8 332.8 70.9C333.1 71.9 334.2 72 335.1 72.4C335 72.3 334.9 72.1 334.7 72C335.3 72.4 336 72.7 336.8 73C337.1 73.1 337.7 73.5 338 73.4ZM337.8 73.6C337.5 73.2 336.1 72.9 335.6 72.7C336.2 73.2 336.8 73.8 337.4 74.3C337.6 74.1 337.7 73.8 337.8 73.6ZM337.3 74.4C336.7 73.8 336 73.2 335.4 72.7C334.8 72.5 334.1 72.2 333.5 72C334.6 73.1 335.6 74.1 336.7 75.2C336.9 74.9 337.3 74.7 337.3 74.4ZM336 75.6C336.2 75.5 336.4 75.3 336.6 75.2C336.6 75.1 336.6 75.1 336.6 75C335.7 74.2 334.9 73.3 334 72.5C333.7 72.2 333.4 71.8 333 71.6C333.7 72.6 334.4 73.6 335.1 74.5C335.4 74.9 335.6 75.6 336 75.6ZM335.8 75.7C334.9 74.5 334 73.2 333.1 71.9C333.2 72.5 333.3 73.1 333.5 73.7C334 74.5 334.5 75.2 335 76C335.3 76.1 335.6 75.9 335.8 75.7ZM334.8 76.2C334.4 75.5 333.9 74.8 333.5 74.2C333.7 74.9 333.8 75.7 334 76.4C334.2 76.3 334.5 76.3 334.8 76.2ZM333.8 76.4C333.8 76.3 333.8 76.3 333.8 76.4C333.5 74.8 333.3 73.3 332.3 72.4C332.5 73.7 332.6 75.1 332.8 76.4C333.2 76.4 333.5 76.4 333.8 76.4ZM332.8 76.4C332.8 75.3 332.5 72.2 331.9 71.6C331.9 73.2 331.9 74.7 331.9 76.3C332.1 76.4 332.4 76.4 332.8 76.4ZM331.9 71.3C331.8 71.4 331.8 71.4 331.9 71.3C331.9 71.4 331.9 71.4 331.9 71.3ZM331.8 69.6C331.7 69.6 331.7 69.7 331.7 69.7C331.7 69.7 331.8 69.7 331.8 69.6ZM331.8 69.5C331.8 69.4 331.8 69.4 331.8 69.5ZM330.1 70C330.3 70 330.6 70.1 330.8 70.1C330.7 70.1 330.5 70 330.4 70C330.3 70 330.2 70 330.1 70ZM330.2 69.9C329.9 69.8 329.6 69.7 329.4 69.6C329.5 69.8 329.9 70.1 330.2 69.9ZM330.8 70C330.7 70 330.7 70 330.6 70C330.7 70 330.8 70 330.8 70ZM330.1 70.1C330.3 70.3 330.9 70.7 331 70.7C331 70.7 331.1 70.7 331.1 70.6V70.5C331 70.4 331 70.3 330.9 70.2C330.6 70.2 330.3 70.2 330.1 70.1ZM331.3 71.3C331.3 71.5 331.2 71.7 331.2 71.9C331.4 71.7 331.5 71.5 331.7 71.4C331.5 71.3 331.4 71.3 331.3 71.3ZM331.4 71.2V71.1C331.3 71.2 331.3 71.2 331.4 71.2C331.3 71.2 331.3 71.2 331.4 71.2ZM331.2 71.1C331.1 71 331.1 71 331 71C330.9 71.1 330.7 71.2 330.6 71.3C330.8 71.3 331 71.3 331.2 71.3C331.2 71.2 331.2 71.1 331.2 71.1ZM331.4 69.8C331.5 69.8 331.5 69.8 331.6 69.8L331.5 69.7C331.4 69.6 331.3 69.4 331.2 69.3C331.2 69.4 331.3 69.6 331.4 69.8ZM331.6 69.6C331.6 69.5 331.5 69.4 331.4 69.4C331.5 69.4 331.5 69.5 331.6 69.6ZM331.6 70C331.7 70.1 331.7 70 331.8 70L331.7 69.9C331.6 69.9 331.6 69.9 331.6 70ZM331.7 71.4C331.4 71.8 331.1 72 331.1 72.8C331.1 72.8 331.1 72.8 331.1 72.7C331.3 72.5 331.8 71.8 331.7 71.4ZM331.7 76.3C331.7 74.8 331.7 73.3 331.7 71.9C331.5 72.3 331.2 72.7 331 73.1C330.9 74.1 330.8 75.1 330.6 76C331 76.2 331.4 76.2 331.7 76.3ZM330.6 76C330.7 75.1 330.8 74.2 330.9 73.3C330.6 74.1 329.8 74.8 329.7 75.6C330 75.8 330.3 75.9 330.6 76ZM328.8 75.1C329.1 75.2 329.3 75.5 329.6 75.6C329.9 74.9 331.3 73.2 331 72.3C330.7 72.7 328.7 74.8 328.8 75.1ZM328.6 75C329.4 74 330.2 73.1 331.1 72.1C331.1 71.9 331.2 71.6 331.2 71.4C331 71.4 330.8 71.4 330.6 71.4C329.8 72 328.5 73.5 327.8 74.3C328.2 74.5 328.4 74.7 328.6 75ZM330.7 71.1C330.6 71.1 330.6 71.1 330.7 71.1C330.6 71.2 330.5 71.2 330.4 71.3C330.6 71.3 330.6 71.2 330.7 71.1ZM327.3 73.5C327.5 73.7 327.7 74 327.9 74.2C328.8 73.3 329.6 72.3 330.5 71.4C330.4 71.4 330.3 71.4 330.2 71.4C329.2 72.1 328.2 72.8 327.3 73.5C327.2 73.5 327.2 73.5 327.3 73.5ZM327.1 73.4C328 72.7 329 72.1 329.9 71.4C329.8 71.4 329.8 71.4 329.7 71.4C328.6 71.8 327.6 72.2 326.5 72.5C326.7 72.8 326.9 73.1 327.1 73.4ZM326.1 71.5C326.7 71.5 327.3 71.5 328 71.5C327.4 71.5 326.7 71.6 326.1 71.5C326.3 71.9 326.4 72.2 326.5 72.5C327.5 72.2 328.4 71.8 329.4 71.5C329.2 71.5 329 71.5 328.8 71.5C328.7 71.5 328.6 71.5 328.5 71.5C329.5 71.4 330.4 71.2 330.8 70.8C330.4 70.6 330.1 70.3 329.6 70.1C328.3 70.3 327.1 70.5 325.8 70.6C325.9 70.9 326 71.3 326.1 71.5ZM325.9 70.5C327 70.4 328.1 70.2 329.2 70.1C328.1 69.9 326.9 69.8 325.8 69.6C325.8 69.9 325.8 70.3 325.9 70.5ZM325.8 69.5C327 69.6 328.3 69.8 329.5 69.9C329.5 69.9 329.5 69.9 329.6 69.9C329.6 69.9 329.6 69.9 329.5 69.9C328.8 69.2 326.8 68.8 325.8 68.5C325.8 68.8 325.7 69.3 325.8 69.5ZM326.2 67.4C326.4 67.6 326.7 67.8 327.1 68.1C326.7 67.8 326.3 67.6 326.1 67.6C326 67.8 325.9 68.1 325.9 68.4C326.8 68.7 327.7 69 328.6 69.3C328.5 69.2 328.3 69 327.9 68.8C328.9 69.4 330 70 330.7 69.9V69.8C330.6 69.5 330.5 69.3 330.4 69C330.1 68.6 327.1 66.8 326.5 66.7C326.4 66.9 326.3 67.2 326.2 67.4ZM326.7 66.5L326.8 66.6C327.7 67.1 328.7 67.6 329.6 68.1C329.3 67.7 327.5 66 327.2 65.9C327 66.1 326.8 66.2 326.7 66.5ZM328 65.3C327.8 65.5 327.6 65.6 327.4 65.8V65.9C328.4 66.7 329.1 67.8 330.2 68.5C330 67.4 328.8 66 328.1 65.3C328.1 65.3 328 65.3 328 65.3ZM329.7 67.1C329.5 66.3 328.9 65.7 328.7 64.9C328.6 64.9 328.6 64.9 328.5 64.9C328.4 65 328.2 65.1 328.1 65.2C328.7 65.8 329.2 66.5 329.7 67.1ZM328.2 59.9C328.3 60.2 328.3 60.4 328.4 60.7H328.5C329 60.2 328.6 60.2 328.8 59.7C329 59.5 329.1 59.3 329.3 59.1C329.2 58.9 329.2 58.9 329 58.8C328.9 59.2 328.5 59.5 328.2 59.9ZM330.5 58.1C330.6 58 330.8 57.9 330.9 57.8V57.7C330.7 57.6 330.6 57.4 330.4 57.3C330.2 57.5 330 57.8 329.8 57.9C329.6 58.1 329.2 58 329 58.2L329.1 58.3C329.5 58.2 329.8 57.8 330.3 58C330.4 58 330.4 58.1 330.5 58.1ZM330.3 58C330.2 58 330.1 58 330.1 58C329.9 58.1 329.6 58.2 329.4 58.3C329.4 58.4 329.4 58.4 329.4 58.5C329.5 58.6 329.6 58.6 329.7 58.7C329.9 58.5 330.2 58.4 330.4 58.2C330.3 58.2 330.3 58.1 330.3 58ZM330.2 58.4C330 58.5 329.8 58.6 329.7 58.8C330 58.8 330.2 58.6 330.2 58.4ZM329.1 60.2C329.3 59.9 329.6 59.5 329.7 59.2C329.6 59.2 329.6 59.1 329.5 59.1H329.4C329.1 59.3 328.7 59.7 329.1 60.2C329 60.2 329 60.2 329.1 60.2ZM328.8 60.5C328.7 60.6 328.5 60.7 328.4 60.9C328.5 61 328.5 61.2 328.6 61.3C328.9 61.1 328.9 61.3 329.2 61.3C329.2 61.3 329.2 61.3 329.2 61.2C329.2 61 329.1 60.6 328.8 60.5ZM329.5 61.7C329.5 61.9 329.5 62.1 329.5 62.3C329.6 62.3 329.6 62.4 329.7 62.4C329.7 62.4 329.7 62.4 329.8 62.4C329.8 62.1 329.7 61.9 329.5 61.7ZM331.7 69.4C331.8 68.8 330.8 67.1 330.5 66.5C330.4 66.2 330.3 65.7 330 65.6L329.9 65.7C330 66.6 330.9 69.2 331.7 69.4ZM329.9 62.3C329.9 62.4 329.9 62.5 329.9 62.7C330 62.8 330.1 63 330.2 63.1C330.3 63.1 330.4 63.1 330.6 63C330.5 62.7 330.1 62.4 329.9 62.3ZM331 64.5C330.9 64.6 330.8 64.6 330.8 64.7C330.9 64.8 330.9 64.9 331 65C330.9 65.1 330.9 65.2 330.8 65.2C331 65.8 331.2 66.4 331.4 67C331.5 66.7 331.2 64.6 331 64.5ZM331.2 64.4C331 64.9 331.8 67.7 331.9 68.3C332 67 332.1 65.8 332.1 64.5C331.9 64.4 331.5 64.4 331.2 64.4ZM333.2 64.7C332.9 64.6 332.6 64.6 332.3 64.5C332.2 65.8 332.1 67.1 332 68.4C332.4 67.2 332.8 66 333.3 64.8C333.3 64.7 333.2 64.7 333.2 64.7ZM333.4 64.7C333 65.8 331.7 68.5 332.4 69.4C333.5 68.6 333.8 66.5 334.4 65.1C334.1 65 333.8 64.8 333.4 64.7ZM334.5 65.2C334.1 66.4 333.6 67.6 333.2 68.8C334 68.3 334.9 66.6 335.4 65.7C335.2 65.5 334.8 65.3 334.5 65.2ZM335.4 65.8C334.9 66.6 334.3 67.5 333.8 68.3C334.2 68 336 66.7 336.2 66.4C336 66.2 335.7 65.9 335.4 65.8ZM336.3 66.6C335.2 67.7 333.8 68.2 333 69.5C334.3 68.8 335.6 68 336.9 67.3C336.8 67.1 336.6 66.8 336.3 66.6ZM337.7 68.4H337.6C337 68.6 336.5 68.9 335.9 69.1C336.5 68.8 337.1 68.5 337.6 68.3V68.2C337.4 68 337.3 67.7 337.1 67.5H337C335.7 68.2 334.4 69 333.1 69.7C333.9 69.8 334.7 69.6 335.5 69.3C335.1 69.5 334.7 69.6 334.2 69.8C334.7 69.9 335.1 69.9 335.6 70C336.4 69.8 337.2 69.5 338 69.3C338 69 337.8 68.7 337.7 68.4ZM338.3 70.3C338.2 70 338.2 69.6 338 69.4C337.3 69.6 336.5 69.8 335.8 70C336.6 70.1 337.6 70.5 338.3 70.3ZM338.3 70.4C337.4 70.3 336.5 70.2 335.5 70.1C334.9 70.3 334.3 70.4 333.7 70.6C334.9 70.8 336 71 337.2 71.2C337.5 71.3 338.3 71.4 338.4 71.3C338.5 71.1 338.4 70.6 338.3 70.4ZM335.8 69.1C335.7 69.2 335.5 69.2 335.4 69.3C335.6 69.2 335.7 69.2 335.8 69.1ZM327 68.1C327.3 68.3 327.6 68.5 327.9 68.7C327.6 68.6 327.3 68.3 327 68.1ZM334.8 72C334.6 71.8 334.3 71.6 334.1 71.4C334.4 71.6 334.6 71.8 334.8 72ZM308.2 63.6C308.2 64.1 308.1 64.7 308.1 65.2C308.1 64.7 308.1 64.1 308.2 63.6Z" fill="#D07850"/>
<path fill-rule="evenodd" clip-rule="evenodd" d="M250.6 55.8C250.4 55.8 250.4 55.9 250.2 55.8C250.2 55.7 250.2 55.6 250.2 55.6C250.1 55.6 250 55.7 249.9 55.7C249.9 55.7 249.9 55.7 249.8 55.6C249.8 55.4 249.7 55.4 249.6 55.2C249.6 55.1 249.7 55 249.7 55C249.7 54.8 249.5 54.6 249.7 54.3C250.1 53.8 250.8 54.2 251.3 54.1C251.4 53.6 251.5 52.9 251.4 52.4C251.3 51.9 250.9 51.3 251 50.6C251.1 50 251.3 49.3 251.6 48.7C251.8 48.4 252 48 252.2 47.7C252.2 47.6 252.1 47.6 252 47.5C252 47.3 252 47.1 252 46.9C251.9 46.7 251.8 46.3 251.6 46C251 45.9 250.1 45.8 250.5 45.1C250.5 44.9 250.4 44.9 250.3 44.8C250.4 44.7 250.4 44.7 250.5 44.5C250.4 44.4 250.4 44.4 250.3 44.3C250.3 44.2 250.4 44.1 250.4 44.1V44C250.3 44 250.2 43.9 250 43.9C250 43.8 250 43.8 250 43.7C250.2 43.5 250.4 43.3 250.5 43.1C250.5 42.9 250.3 42.8 250.4 42.5C250.6 42.1 250.8 41.7 250.9 41.3C250.8 41.2 250.6 41.2 250.5 41.1C250.5 41 250.4 40.9 250.4 40.8C250.5 40.6 250.7 40.7 250.9 40.6C251.1 40.5 251.1 40.2 251.4 40.1C252.9 39.5 254.7 40.2 255.1 41.4C255.6 42.9 254.6 43.8 254.5 45.1C254.7 45.3 254.9 45.5 255.1 45.7C255.5 46 256.1 46.3 256.4 46.7C257 47.5 257.2 48.1 257.6 49.1C257.8 49.6 258.1 50.1 258.3 50.8C258.5 51.3 259 52.7 258.9 53.2C258.7 53.4 258.4 53.5 258.1 53.7C258.1 54.7 258.1 55.7 258.1 56.7C258.2 57.3 258.5 57.7 258.7 58.3C258.9 59.1 258.7 60 258.7 60.7C259.2 61.3 259.4 62.2 259.8 62.9C259.9 63.1 260.2 63.5 260.1 63.7C259.4 64 258.8 64.4 258.1 64.7C257.9 65.3 257.9 65.9 258.2 66.4C258.5 66.8 260.5 67.1 261.1 67.3C261.5 67.5 261.8 67.8 262.1 68.1C263 68.8 263.9 69.7 265.1 70.1C265.4 70.2 265.7 70.3 266 70.2C266.4 70.1 267.2 69.7 267.8 70C268 70.7 268 71.9 267.8 72.6C267.7 72.9 267.9 73.2 267.9 73.5C267.9 74.1 267.7 74.9 267.5 75.4C267.4 75.8 267 76.9 266.4 76.5C265.9 76.2 266.4 75.7 266.4 75.3C266.3 75.1 266.3 75 266.2 74.8C266.1 74.8 266.1 74.9 266 74.8C265.8 74.3 265.4 74 265.2 73.6C265.1 73.5 265.2 73.2 265.1 73.1C264.9 73 264.4 72.8 264.4 72.6C264.5 72.5 264.7 72.4 264.8 72.3C264.7 72.2 264.7 72.1 264.6 72.1C264.4 71.9 264 71.8 263.8 71.6C263.8 71.5 263.8 71.5 263.8 71.4C263.7 71.3 263.5 71.2 263.4 71.1C262.6 70.6 261.6 70.4 260.7 70C260.1 69.7 259.6 69.5 259 69.2C258.6 69.1 258.1 69 257.7 68.8C257.3 68.7 256.7 68.8 256.4 68.6C256.2 68.5 256.3 68.3 256.2 68.2C256 68 255.9 67.7 255.7 67.5C255.6 67.1 255.5 66.8 255.4 66.4C255.3 66.2 255.1 66 255 65.8C255 65.8 255 65.8 254.9 65.8C254.6 66.5 254.1 67 254 67.9C254 68.2 254.1 68.5 254.2 68.7C254.4 69.2 254.8 70.3 254.6 71C254.5 71.4 254.5 71.8 254.4 72.3C254.2 73 254 73.9 254.2 74.8C254.2 74.9 254.3 75 254.4 75.1C254.5 75.4 254.3 75.8 254.5 76.2C254.6 76.3 254.6 76.3 254.7 76.4C254.8 76.6 254.9 76.9 255 77.1C255 77.2 255 77.4 255 77.5C255.1 77.7 255.4 78 255.3 78.4C255.1 78.8 254.4 78.8 253.9 78.9C253.4 79 253 78.8 252.5 78.8C251.6 78.9 250.1 79 249.4 78.7C249.1 78.6 248.3 77.9 248.8 77.5C249.1 77.3 249.7 77.4 250.1 77.3C250.5 77.1 250.8 76.8 251.2 76.6C250.6 76.4 250.3 75.9 250 75.5C250 75.4 250 75.4 250 75.3C250 75.3 250.1 75.3 250.1 75.4C250 75.3 250 75.3 250 75.1C250.3 75.2 250.3 75.7 250.5 75.9C250.8 76.1 251.2 76.2 251.5 76.4C251.3 76 250.9 76.1 250.6 75.8C250.5 75.6 250.4 75.4 250.3 75.2C250.3 75.1 250.3 75.1 250.5 75.1C251.1 75.3 251.3 76.1 251.7 76.3C251.7 75.9 252 75.8 252.2 75.5C252.6 74.8 252.2 73.4 252.1 72.5C252 71.8 252 71.1 251.9 70.5C251.9 70.2 251.9 69.9 251.9 69.6C251.8 69 251.3 68.5 251.2 67.9C251.1 67.3 251.4 66.7 251.5 66.2C251 65.9 251.5 64.2 251.7 63.7C251.8 63.3 252 62.9 252.1 62.5C252.2 62.2 252.4 61.9 252.5 61.6C252.6 61.3 252.5 61.1 252.5 60.9C252.5 60.3 252.5 59.6 252.5 59C252.5 58.6 252.5 57 252.4 56.8C252.2 56.9 251.9 57 251.7 56.9V56.8C251.3 56.8 251.3 56.7 251.2 56.4C251 56.4 251 56.4 250.9 56.3C250.7 56 250.7 55.9 250.6 55.8ZM250.5 75.2C250.6 75.6 251 75.8 251.4 75.9C251.1 75.6 250.9 75.2 250.5 75.2ZM250.6 75.9C250.7 76.1 251.1 76.3 251.4 76.3C251.4 76.3 251.4 76.3 251.4 76.2C251 76.2 250.9 76 250.6 75.9Z" fill="#D07850"/>
<path d="M409.9 73.6C409.8 73.5 409.8 73.4 410 73.3C410.1 73.2 410.3 73.2 410.4 73.1C410.5 73.1 410.5 73 410.6 73C410.6 72.9 410.6 72.9 410.6 72.9C410.5 72.9 410.3 72.9 410.1 72.9C410 73 410 73.1 409.8 73.2L409.7 73.1C409.6 73 409.6 72.8 409.5 72.7C409.4 72.5 409.5 72.4 409.7 72.4C409.9 72.4 410 72.4 410.2 72.4C410.3 72.4 410.5 72.5 410.6 72.6C410.7 72.7 410.8 72.7 410.9 72.9C411 72.9 411.1 72.8 411.1 72.8C411.2 72.7 411.3 72.6 411.4 72.4V72.3C411.6 71.5 411.6 70.7 411.7 70C411.7 69.6 411.8 69.3 411.9 68.9C412 68.5 412 68.1 412 67.7C412 67.6 412 67.5 412 67.4C412 67.2 412 67 411.9 66.9C411.8 66.7 411.8 66.5 411.7 66.4C411.7 66.3 411.6 66.3 411.6 66.2C411.6 66.1 411.5 66.1 411.5 66C411.5 65.7 411.5 65.4 411.5 65.1C411.5 64.9 411.5 64.8 411.5 64.6C411.5 64.4 411.5 64.2 411.5 64C411.5 63.9 411.5 63.8 411.4 63.7C411.3 63.6 411.3 63.4 411.2 63.2C411.1 63.2 411.1 63.1 411 63C411 62.8 410.9 62.6 410.9 62.5V62.4C410.8 62.2 410.7 61.9 410.8 61.7C410.8 61.6 410.8 61.6 410.8 61.5C410.8 61.4 410.8 61.3 410.8 61.2C410.8 61.1 410.8 60.9 410.8 60.8C410.8 60.7 410.8 60.5 410.7 60.4C410.3 59.9 410.3 59.4 410.4 58.8V58.7C410.3 58.7 410.3 58.7 410.2 58.7C410 58.7 409.9 58.6 409.7 58.6C409.6 58.6 409.6 58.5 409.6 58.4C409.7 57.8 409.6 57.2 409.7 56.6C409.8 55.7 409.8 54.9 410 54C409.6 53.8 409.2 53.6 408.8 53.5C408.7 53.6 408.7 53.6 408.6 53.7C408.6 53.7 408.6 53.7 408.5 53.8C408.4 53.9 408.3 53.8 408.3 53.7V53.6C408.2 53.6 408 53.8 407.9 53.6C407.6 53.6 407.6 53.6 407.4 53.4C407.3 53.5 407.2 53.5 407.1 53.5C407 53.5 406.9 53.3 406.9 53.2V53.1C406.8 53.1 406.8 53.1 406.7 53V53.1C406.7 53.7 406.6 54.4 406.5 55C406.5 55.2 406.4 55.5 406.4 55.7C406.4 55.8 406.4 55.9 406.2 56C406.1 56.4 406.1 56.7 406 57C406 57.1 406 57.1 406 57.2C406 57.8 405.9 58.3 405.7 58.8C405.6 59.2 405.5 59.5 405.4 59.9C405.4 60 405.4 60.2 405.5 60.3C405.7 60.4 405.7 60.6 405.6 60.8C405.6 60.9 405.5 61 405.5 61.2C405.5 61.3 405.5 61.3 405.5 61.4C405.7 61.7 405.6 61.9 405.5 62.2C405.4 62.3 405.4 62.4 405.5 62.5C405.7 62.8 405.7 63.2 405.7 63.5C405.7 63.7 405.7 64 405.8 64.2C405.8 64.6 405.8 65 405.8 65.4C405.8 65.6 405.8 65.8 405.8 66C405.8 66.4 405.7 66.9 405.6 67.3C405.5 67.7 405.5 68 405.4 68.4C405.4 68.4 405.5 68.5 405.6 68.6C405.8 68.8 405.9 69 405.8 69.3C405.7 69.4 405.7 69.5 405.6 69.7C405.5 69.9 405.3 70.1 405.2 70.3C405.2 70.4 405.3 70.4 405.3 70.5C405.4 70.7 405.4 70.9 405.2 71.1C405.1 71.2 405.1 71.2 405 71.3C405.1 71.5 405.1 71.6 405 71.7C404.9 71.8 404.9 71.9 404.9 72.1C404.9 72.2 404.9 72.2 405 72.3C405.1 72.3 405.2 72.3 405.3 72.3C405.2 72.4 405.1 72.4 405 72.5C405.1 72.8 405.1 73 405.2 73.3L405.3 73.4L405.2 73.5C405.1 73.5 405 73.6 404.9 73.6C404.1 73.8 403.3 74 402.5 74C402.2 74 401.8 74 401.5 74C401.1 74 400.8 74 400.4 74C400.2 74 400 73.9 399.8 73.8C399.6 73.7 399.6 73.5 399.8 73.3C399.9 73.3 400 73.2 400 73.2C400.3 73.1 400.5 73 400.7 72.9C400.9 72.8 401 72.6 401.2 72.5C401.2 72.4 401.3 72.4 401.4 72.3C401.6 72.2 401.7 72 401.9 71.9L402 71.8C402.2 71.7 402.3 71.5 402.4 71.3C402.3 71.3 402.3 71.3 402.2 71.2C402.1 71.2 402.1 71.1 402 71.1V71L402.1 70.9C402.2 70.9 402.3 71 402.3 71L402.4 71.1C402.4 71 402.5 70.9 402.5 70.9C402.5 70.7 402.5 70.4 402.6 70.2C402.5 70.2 402.5 70.3 402.4 70.3C402.3 70.3 402.3 70.3 402.2 70.2C402.2 70.1 402.2 70.1 402.3 70C402.4 69.9 402.5 69.9 402.6 69.8C402.7 69.8 402.7 69.8 402.8 69.8C402.9 69.8 402.9 69.7 403 69.7C403 69.5 402.9 69.3 402.9 69.2C402.9 69.1 402.9 68.9 402.9 68.8C402.8 68.8 402.8 68.7 402.7 68.7C402.4 68.5 402.2 68.3 402.1 67.9C402 67.5 401.9 67 401.8 66.6C401.8 66.5 401.8 66.3 401.8 66.1V66C401.5 65.1 401.1 64.3 400.8 63.4C400.7 63.3 400.7 63.1 400.6 63C400.6 62.9 400.5 62.8 400.6 62.7V62.6C400.6 62.5 400.6 62.4 400.5 62.4C400.4 62.4 400.4 62.3 400.4 62.3C400.4 62.1 400.4 62.1 400.3 61.9C400.2 61.8 400.2 61.8 400.1 61.7C400 61.6 400 61.5 399.9 61.3C399.9 61.2 399.8 61.1 399.8 61C399.7 60.8 399.7 60.6 399.7 60.5C399.7 60.3 399.7 60.2 399.7 60C399.5 59.5 399.5 59 399.4 58.5C399.3 57.9 399.2 57.3 399.1 56.7C399.1 56.6 399.1 56.5 399 56.4C398.9 56.3 398.9 56.1 398.9 56C398.9 55.7 398.9 55.4 398.9 55.1C398.9 54.8 398.9 54.5 398.9 54.3C398.9 54 398.9 53.8 398.9 53.5C398.9 53.3 398.9 53.2 398.9 53C398.9 52.9 398.9 52.9 399 52.8C399 52.6 399 52.5 399 52.3V52.2C399 52.1 399 52.1 399.1 52C399.1 51.9 399.1 51.8 399.2 51.8V51.7L399.3 51.6V51.5C399.2 51.3 399.3 51.2 399.3 51C399.3 50.9 399.3 50.8 399.3 50.6C399.3 50.5 399.3 50.5 399.3 50.4C399.3 50.3 399.2 50.1 399.2 50C399.2 49.9 399.2 49.9 399.3 49.8C399.3 49.7 399.3 49.7 399.3 49.6C399.3 49.5 399.2 49.4 399.3 49.3C399.3 49.2 399.3 49.1 399.3 48.9C399.1 48.6 399.1 48.2 399 47.9C399 47.8 399 47.6 399 47.5C399 47.4 399 47.3 399 47.2C399 47.1 399 47 399 47C398.9 46.9 398.9 46.8 398.9 46.7C398.9 46.6 398.9 46.6 398.8 46.6C398.7 46.5 398.6 46.3 398.6 46.2C398.5 45.9 398.5 45.7 398.4 45.4C398.4 45.3 398.4 45.3 398.4 45.2V45.3C398.3 45.8 398.3 46.3 398.2 46.9C398.2 47 398.2 47.1 398.2 47.2C398.2 47.6 398.1 48 398.1 48.3C398 48.7 398 49.1 397.9 49.5C397.8 50.1 397.6 50.6 397.4 51.2C397.2 51.8 397 52.5 396.8 53.2C396.8 53.3 396.8 53.5 396.8 53.7C396.8 53.8 396.8 53.8 396.9 53.9C397.1 54.2 397.1 54.4 397.1 54.7C397.1 54.8 397.1 54.9 397 55C397 55.1 397 55.1 396.9 55.2C396.9 55.3 396.9 55.3 396.9 55.4C397 55.7 397 56 397 56.4H397.1C397.2 56.4 397.3 56.4 397.4 56.5L397.5 56.6L397.4 56.7H397.3C397.4 56.7 397.4 56.8 397.4 56.8C397.4 56.8 397.5 56.9 397.4 57C397.4 57.1 397.3 57.1 397.3 57.1C397.2 57.1 397 57.1 396.9 57.1V57.2C396.9 57.3 396.8 57.4 396.7 57.3C396.5 57.2 396.3 57 396.2 56.9C396.1 56.8 396 56.7 396 56.7C395.9 56.6 395.9 56.5 395.9 56.5C395.9 56.4 395.8 56.2 395.8 56.1C395.8 56 395.7 55.9 395.7 55.8C395.6 55.7 395.6 55.5 395.6 55.4C395.6 55.2 395.7 54.9 395.8 54.7C395.9 54.5 395.9 54.2 396 54V53.9C396 53.2 396.1 52.5 396.1 51.8C396.1 51.3 396.1 50.7 396.1 50.2C396.1 49.9 396.1 49.6 396.1 49.3C396.1 48.8 396.2 48.4 396.3 47.9C396.4 47.7 396.4 47.4 396.5 47.2C396.6 46.8 396.7 46.4 396.7 45.9C396.7 45.5 396.7 45.2 396.7 44.8C396.7 44.7 396.7 44.6 396.7 44.5C396.7 44.5 396.6 44.5 396.6 44.4C396.6 44.3 396.6 44.2 396.6 44.1C396.6 43.8 396.6 43.5 396.6 43.2C396.6 43.1 396.6 43.1 396.6 43C396.5 42.8 396.5 42.6 396.5 42.4C396.5 42.2 396.5 42.1 396.5 41.9C396.5 41.7 396.5 41.4 396.5 41.2C396.5 40.9 396.6 40.6 396.8 40.3C396.9 40.1 397 40 397.2 39.9C397.6 39.6 398 39.3 398.5 39L398.6 38.9C398.7 38.8 398.8 38.7 398.9 38.6C398.9 38.4 398.9 38.2 398.8 38C398.7 37.6 398.5 37.3 398.3 37C398.1 37.1 398.1 37.1 397.9 37C397.8 36.9 397.7 36.8 397.6 36.6C397.5 36.5 397.5 36.3 397.4 36.2C397.3 36 397.4 35.8 397.6 35.6C397.5 35.5 397.6 35.3 397.5 35.2C397.5 35.2 397.5 35.2 397.5 35.1C397.5 35 397.5 35 397.5 34.9C397.5 34.8 397.4 34.6 397.4 34.5C397.4 34.3 397.4 34.1 397.5 34C397.6 33.8 397.7 33.6 397.8 33.4C397.8 33.3 397.9 33.2 397.9 33.1C398 32.9 398.2 32.8 398.4 32.8C398.6 32.8 398.7 32.7 398.9 32.7C399 32.6 399.2 32.6 399.3 32.6C399.5 32.6 399.8 32.6 400 32.6C400.2 32.6 400.3 32.6 400.4 32.7C400.5 32.7 400.5 32.8 400.6 32.8C400.8 32.9 400.9 33 401 33.1C401.3 33.4 401.5 33.7 401.6 34.1C401.7 34.4 401.7 34.7 401.7 35.1C401.7 35.3 401.7 35.4 401.8 35.6C401.8 35.7 401.8 35.7 401.8 35.8C401.8 35.9 401.8 35.9 401.8 36C401.8 36.2 401.9 36.3 401.9 36.5C402 36.8 401.9 37.1 401.9 37.4C401.9 37.4 402 37.5 402.1 37.5C402.4 37.6 402.7 37.6 402.9 37.7C403 37.7 403 37.7 403.1 37.7C403.2 37.7 403.4 37.7 403.5 37.7C404 37.9 404.5 37.9 404.9 38C405 38 405 38 405.1 38C405.2 38 405.3 38.1 405.4 38.1L405.5 38.2C405.7 38.3 405.8 38.5 406 38.7C406 38.8 406.1 38.8 406.1 38.9C406.4 39.3 406.7 39.8 407 40.2C407.1 40.3 407.1 40.4 407.1 40.6V40.7C407.2 40.9 407.2 41.1 407.3 41.2C407.4 41.4 407.5 41.5 407.6 41.7C407.6 41.8 407.7 41.8 407.7 41.9V42C407.8 42.2 407.9 42.4 407.9 42.6C407.9 42.7 408 42.9 408 43C408.1 43.4 408.3 43.7 408.5 44.1C408.6 44.2 408.6 44.3 408.7 44.5C408.8 44.7 408.8 44.8 408.9 45V45.1C409.1 45.5 409.2 45.9 409.3 46.3C409.4 46.8 409.5 47.4 409.5 47.9C409.5 48.1 409.5 48.2 409.5 48.4C409.5 49 409.5 49.5 409.5 50.1C409.5 50.2 409.5 50.3 409.5 50.4V50.5C409.6 50.6 409.6 50.8 409.6 51C409.6 51.1 409.6 51.3 409.6 51.4C409.8 51.9 409.8 52.4 409.8 53V53.1C410.2 53.3 410.5 53.4 410.9 53.4V53.3C411 53 411 52.8 411.1 52.5C411.1 52.4 411.1 52.4 411.1 52.3C411.2 52 411.3 51.7 411.3 51.4C411.3 51.1 411.5 50.8 411.7 50.6C411.8 50.5 411.8 50.5 411.8 50.4C411.8 50.3 411.8 50.1 411.8 50C411.9 49.7 412 49.5 412.3 49.4L412.4 49.3C412.4 49.2 412.3 49.1 412.3 49C412.2 48.8 412.2 48.7 412.1 48.5C412.1 48.4 412 48.3 411.9 48.3C411.7 48.2 411.5 48.2 411.3 48.2C411.2 48.2 411.2 48.2 411.1 48.2C411 48.1 410.9 48 411 47.8C411.1 47.7 411.1 47.6 411.1 47.5V47.4V47.3C411 47.1 411 47 411 46.8L410.9 46.7C410.8 46.6 410.8 46.5 410.9 46.4C411 46.3 411.1 46.3 411.1 46.2C411.1 46.1 411.1 46 411.2 45.9C411.2 45.8 411.2 45.6 411.3 45.5C411.4 45.4 411.4 45.3 411.5 45.1L411.4 45C411.3 44.8 411.3 44.7 411.4 44.5C411.5 44.3 411.7 44.1 411.9 44C412.1 43.9 412.2 43.8 412.4 43.7L412.5 43.6C412.7 43.3 413 43.2 413.4 43.3C413.5 43.3 413.5 43.4 413.6 43.4C413.7 43.4 413.7 43.4 413.8 43.4L413.7 43.5C413.7 43.5 413.8 43.4 413.9 43.4H414C413.9 43.4 413.9 43.4 413.8 43.5C414.1 43.4 414.3 43.5 414.6 43.6C414.9 43.7 415.3 43.9 415.5 44.2C415.6 44.3 415.7 44.4 415.8 44.6C416 44.9 416.1 45.3 416.1 45.6C416.1 45.7 416.1 45.7 416.1 45.8C416.1 46 416 46.2 416 46.3C416 46.5 415.9 46.6 415.8 46.7C415.8 46.7 415.8 46.7 415.8 46.8C415.7 47 415.6 47.1 415.4 47.2C415.1 47.4 414.8 47.7 414.6 48C414.3 48.3 414.2 48.7 414.3 49.1C414.4 49.4 414.5 49.6 414.8 49.7C414.9 49.8 415 49.9 415 50C415 50.1 415.1 50.2 415.1 50.3C415.3 50.5 415.4 50.8 415.5 51.1C415.5 51.2 415.6 51.2 415.6 51.3C415.8 51.2 415.9 51.3 416 51.5C416 51.6 416 51.8 416 51.9C416 52 416 52 416 52.1C416.2 52.2 416.4 52.2 416.6 52.3C416.7 52.3 416.9 52.4 417 52.4C417.2 52.5 417.5 52.5 417.7 52.6C417.8 52.6 417.9 52.6 418 52.7C418.1 52.7 418.2 52.8 418.2 52.8C418.3 52.8 418.3 52.9 418.4 52.9C418.7 53 418.9 53.2 419 53.5C419.1 53.7 419.2 54 419.2 54.2C419.2 54.3 419.2 54.3 419.2 54.4C419.1 54.8 419.2 55.1 419.3 55.4C419.4 55.9 419.4 56.4 419.5 57C419.5 57.2 419.5 57.3 419.5 57.5C419.5 57.6 419.5 57.6 419.5 57.7C419.5 57.9 419.5 58.1 419.4 58.3C419.3 58.5 419.3 58.8 419.2 59C419.2 59.2 419.1 59.4 418.9 59.5C418.7 59.6 418.6 59.8 418.3 59.8C417.9 60 417.5 60.1 417 60.2C417 60.2 417 60.2 416.9 60.2C416.9 60.3 416.9 60.3 416.8 60.4C416.7 60.7 416.7 60.7 416.4 60.7C416.3 60.7 416.1 60.7 416 60.6C416 60.7 416 60.7 416 60.8C415.9 61.2 415.8 61.6 415.7 62C415.7 62.1 415.6 62.3 415.6 62.4C415.5 62.6 415.5 62.8 415.4 63C415.4 63.1 415.3 63.3 415.3 63.4C415.3 63.6 415.3 63.8 415.2 64.1C415.1 64.2 415.2 64.4 415.2 64.5C415.3 64.8 415.4 65.1 415.4 65.5C415.4 65.6 415.4 65.7 415.5 65.8C415.5 65.9 415.6 66.1 415.5 66.2V66.3C415.5 66.4 415.5 66.4 415.6 66.5C415.8 66.8 416 67.2 416.2 67.5C416.6 68.1 416.9 68.8 417.1 69.5C417.2 70.1 417.4 70.7 417.7 71.2C417.8 71.6 418.1 71.9 418.3 72.2C418.4 72.2 418.5 72.3 418.5 72.4C418.6 72.6 418.8 72.9 418.9 73.1C418.9 73.1 418.9 73.2 419 73.2C419.1 73.3 419.1 73.4 419.2 73.5C419.3 73.6 419.2 73.8 419.1 73.8C418.9 74 418.6 74.2 418.4 74.4C418.1 74.6 417.8 74.8 417.6 75C417.5 75.1 417.3 75.3 417.2 75.4C417.3 75.5 417.4 75.4 417.5 75.6C417.4 75.6 417.4 75.7 417.4 75.7C416.9 75.8 416.4 75.9 415.9 75.9C415.8 75.9 415.6 75.9 415.5 75.8H415.4C415.3 75.8 415.3 75.8 415.2 75.8C414.9 75.7 414.8 75.5 415 75.2C415.1 75.1 415.2 75 415.3 75C415.4 75 415.5 74.9 415.6 74.9C415.7 74.9 415.8 74.8 415.9 74.7C415.9 74.7 415.9 74.7 415.9 74.6C415.9 74.5 415.9 74.4 415.9 74.3C415.9 74.2 416 74.2 416 74.2C416.1 74.1 416.3 73.9 416.4 73.8C416.5 73.7 416.5 73.6 416.6 73.5C416.6 73.5 416.6 73.4 416.6 73.3C416.5 73.2 416.4 73.2 416.3 73.3C416.2 73.4 416.1 73.4 416.1 73.5C416 73.7 415.9 73.8 415.7 74C415.9 73.8 415.9 73.5 416.2 73.3C416.3 73.2 416.4 73.2 416.5 73.2C416.6 73.2 416.6 73.2 416.7 73.3C416.7 73.1 416.8 73 416.8 72.8C416.8 72.8 416.8 72.8 416.8 72.7C416.9 72.5 416.8 72.4 416.7 72.3C416.6 72 416.4 71.8 416.3 71.5C416 70.9 415.7 70.4 415.3 69.8C415.3 69.8 415.3 69.8 415.3 69.7C415.3 69.8 415.3 69.9 415.3 69.9C415.3 70.5 415.1 71.1 414.9 71.6C414.7 72.2 414.5 72.8 414.3 73.4C414.3 73.5 414.3 73.5 414.2 73.6C414 73.9 414 74.2 414 74.6C414.1 74.7 414.1 74.7 414.1 74.8C414.1 75 414.1 75.1 414.1 75.3C414.1 75.5 414.1 75.8 414.2 76C414.2 76 414.2 76.1 414.3 76.1C414.2 76.2 414.1 76.2 413.9 76.3C413.5 76.3 413.1 76.4 412.7 76.4C412.4 76.4 412 76.5 411.7 76.5C411.4 76.5 411 76.5 410.7 76.4C410.6 76.4 410.5 76.4 410.4 76.3C410.5 76.3 410.5 76.2 410.6 76.2C410.5 76.2 410.5 76.1 410.4 76.1C410.2 76 409.9 75.8 409.7 75.7C409.6 75.7 409.5 75.6 409.5 75.5C409.4 75.4 409.4 75.4 409.4 75.3C409.5 75.1 409.7 74.9 409.9 74.9C410.3 74.8 410.6 74.8 411 74.7C409.8 73.6 409.8 73.6 409.9 73.6ZM405.5 43.6C405.4 44 405.4 44.4 405.4 44.8C405.4 45 405.4 45.2 405.5 45.5C405.6 45.7 405.6 45.9 405.6 46.1C405.6 46.2 405.6 46.3 405.7 46.4C405.8 46.7 405.9 47 406 47.3C406.1 47.7 406.2 48.1 406.3 48.6C406.4 48.9 406.4 49.1 406.4 49.4C406.4 49.7 406.4 50.1 406.4 50.4C406.4 50.5 406.4 50.5 406.4 50.6C406.5 50.8 406.5 51 406.4 51.1V51.2C406.7 51 406.9 50.8 407.2 50.5V50.4C407.2 50.3 407.2 50.2 407.2 50.1V50C407.2 49.7 407.2 49.4 407.1 49.1C407.1 48.7 407 48.3 406.9 47.9C406.7 47.5 406.7 47.1 406.6 46.7C406.6 46.3 406.5 45.9 406.4 45.5V45.4C406.4 45.3 406.4 45.2 406.3 45.2C406.2 44.9 406 44.6 405.8 44.4C405.7 44.2 405.5 44 405.4 43.8C405.5 43.7 405.5 43.7 405.5 43.6ZM396.1 55.1C396 55.1 396 55.2 395.9 55.2C395.9 55.4 395.9 55.5 395.9 55.6C395.9 55.6 395.9 55.7 396 55.7C396 55.7 396 55.8 396.1 55.8C396.1 55.6 396.1 55.4 396.1 55.1ZM409.8 72.8C409.9 72.7 410.1 72.7 410.2 72.6C410.2 72.6 410.3 72.6 410.3 72.5C410.2 72.4 410.1 72.4 410 72.5C409.7 72.6 409.7 72.7 409.8 72.8ZM402.5 69.8C402.4 69.8 402.2 69.8 402.2 69.9V70L402.3 70.1C402.3 70.1 402.4 69.9 402.5 69.8ZM415.1 50.6C415 50.7 415 50.8 415.1 51.1C415.1 50.9 415.1 50.7 415.1 50.6ZM414.9 73.2C414.7 73.3 414.6 73.5 414.7 73.6C414.9 73.5 414.9 73.3 414.9 73.2ZM402.7 69.8H402.6C402.5 69.8 402.5 70 402.5 70.1C402.5 70 402.6 69.9 402.7 69.8ZM401.8 70.9C401.9 71 401.9 71 402.1 71C402 70.9 401.9 70.8 401.8 70.9ZM410.6 72.8C410.4 72.8 410.4 72.8 410.3 72.8C410.4 72.8 410.5 72.8 410.6 72.8ZM410.9 43.7C410.8 43.7 410.8 43.7 410.8 43.9C410.9 43.9 410.9 43.8 410.9 43.7ZM410.9 73C410.8 73 410.8 73 410.9 73Z" fill="#D07850"/>
<path d="M200.7 111.7C217.9 116.3 220.5 90.4 212.3 85.8C193.3 75.2 199 105.4 199.2 110.3C199.8 110.9 200.2 111.3 200.7 111.7ZM297 110.9C297.7 110.4 298.4 109.9 299.1 109.5C299.6 105.6 303.1 72 284.6 84.4C280.8 86.9 281.8 104.6 283.7 106.5C288.6 111 283.6 111.4 297 110.9ZM270.6 109C271.3 108.7 271.9 108.4 272.4 108.2C277.1 104 274.5 89.2 272.1 84.9C247.3 77.3 245.5 110.1 270.6 109ZM191 107.5C190.1 104.6 190 101.5 190 98.4C189 60.3 158.5 113.6 178.5 116.6C187.3 115.6 195 115.1 191 107.5ZM243 108.8C244.5 107.8 245.1 106.8 245.2 105.7C245.4 100.2 247.7 88.5 241.7 84.9C235.3 81 227.2 85.2 224.4 88.8C222.8 90.9 222.2 106.6 226 109.5C229.6 112.1 239.2 109.5 243 108.8ZM349 81.6C346.4 80.9 343.9 81 341.4 81.1C334.4 81.5 328.7 126.5 350.4 119.2C356.7 114.8 352.6 87.9 350.5 82.7C349.8 82.3 349.3 81.9 349 81.6ZM324.5 82.2C323.3 82 322.3 81.8 321.2 81.8C296.1 83.4 308.6 121.4 325.2 115.1C325.6 114.7 326 114.2 326.4 113.7C327.7 104.8 327.4 92.8 325.8 83.2C325.5 83 325 82.6 324.5 82.2ZM164.7 120.1C165.7 118.6 165.7 117.2 165.7 115.8C165.7 112.6 169.5 69 149.3 87.6C147.4 89.3 149.4 112.7 150.8 116C153.6 122.5 154.1 126.3 164.7 120.1ZM76.6 155.6C77.7 155.6 78.9 155.7 79.8 155.4C97.1 150.5 89 84.3 85.8 84.1C76.4 83.7 73.2 147.4 76.6 155.6ZM393 83.1C394.6 92.7 394.7 102.6 394.9 112.5C395 118 390.7 144 406.3 143.1C413.2 142.7 410.8 128.5 411 125C411.3 117.7 416.2 91.9 411.3 85.6C408.8 82.4 397.2 76.4 393 83.1ZM385.2 129.5C385.3 127.8 385.5 125.8 385.4 123.9C385.2 111.7 392.4 83 374.6 81C352.1 78.5 360 111.5 362.4 123C364.7 126.2 381.6 134.2 385.2 129.5ZM70.6 84.9C70 83.8 69.4 83.1 68.3 83C37.4 78.4 50.9 112.7 51.2 128.4C51.3 135.2 47.4 185.4 65.2 163.3C67.2 137.1 68.8 111 70.6 84.9ZM438.6 158.6C439.2 158 440.1 157.5 440.5 156.8C447.8 141.8 441.9 116.5 442 100.4C442.1 92.9 443.9 72 423.9 82.1C415 86.6 420.6 121.2 420.2 130.1C419.5 143 417.8 155.3 438.6 158.6ZM112.1 138.8C112.4 138.1 112.9 137.3 113 136.5C113.6 130.5 107.6 85 121.4 89.3C130.8 97.2 118.9 121.7 124.5 132C129.9 132 135.7 129.7 140 127.2C144.3 121.8 143.3 98.6 140.4 92.5C135.5 82.4 127.6 83.2 113 84.6C93.2 86.5 98.2 90.3 98.6 106.4C98.9 117.6 95.2 132.9 100 143.6C103.9 144.6 109.6 140.6 112.1 138.8ZM76.6 166.8C71.4 173.7 63.9 176.5 55.6 180.6C54.3 182.2 53.1 183.6 52.1 184.9C41.6 191 15.5 203.1 31.6 185.8C35.4 181.6 40.9 181.2 43.8 175.9C47.6 169 43 154.9 42.4 147.5C41 130.8 48.2 106.6 41.5 91C37.3 81.3 38.7 88.9 31.3 83.3C28.6 81.2 21 83.5 24.7 77.7C45.7 69.8 76.2 76 98.5 76.8C128.8 77.9 160.1 78.3 190.4 77.7C253.9 76.5 317.5 73.4 381 73.5C393.2 73.5 469 68.5 471.9 76.8C474.5 84.3 460.8 79.4 456.5 81.6C448.1 85.9 451.7 96.9 451.7 104.1C451.6 117.7 452.2 131.5 451.4 145.1C451 151.6 447.9 160.1 452 165.7C455.6 170.7 473.7 172.2 473.4 179.1C473.1 185.5 464.8 186.9 462.6 180.7C436.2 162.9 396 143.3 363.3 133.6C360.9 133.7 358.8 133.8 357 133.8C350.1 132.5 342 127.4 334 125.6C321.6 122.9 308.2 120.3 295.5 118.9C270.7 116 246.5 117 221.7 118.9C175.3 122.3 132.1 136.4 94.6 158.1C88.9 159.9 82.5 163 76.6 166.8Z" fill="#C9A0B0"/>
<path d="M464.5 57.3C464.4 58.2 464.4 59 464.4 59.7C458.1 67.6 421.6 62.6 412.2 62.7C392.3 62.9 372.5 64.9 352.5 65.1C317.3 65.5 282.5 64.1 247.3 65.1C210 66.2 172.4 66 135 66.3C115.9 66.4 96.8 66.5 77.7 65.8C73.1 65.6 34.2 67.3 32.2 64.2C27.1 56 119 59.1 129.9 59C168.1 58.7 206.6 59.1 244.7 57.8C284.2 56.4 323.7 59 363.1 57.5C380.8 56.8 398.5 55.5 416.3 55.1C425.5 54.9 453.7 51.6 462.2 55.5C463.1 55.9 463.7 56.6 464.5 57.3Z" fill="#C9A0B0"/>
</svg>
